<svg id="Camada_1" data-name="Camada 1" xmlns="http://www.w3.org/2000/svg" viewBox="0 0 1869.29 855.74"><defs><style>.cls-1,.cls-13,.cls-2{fill:#fce289;}.cls-2,.cls-7{font-size:53.67px;}.cls-11,.cls-13,.cls-17,.cls-19,.cls-2,.cls-7,.cls-8{font-family:CaviarDreams, Caviar Dreams;}.cls-3{letter-spacing:-0.02em;}.cls-4{letter-spacing:0em;}.cls-5{letter-spacing:-0.05em;}.cls-6{letter-spacing:0.01em;}.cls-8{font-size:32.41px;}.cls-9{letter-spacing:0.01em;}.cls-10{letter-spacing:0em;}.cls-11{font-size:48.7px;}.cls-12{letter-spacing:0.02em;}.cls-13{font-size:37.92px;}.cls-14{letter-spacing:-0.01em;}.cls-15{letter-spacing:0.01em;}.cls-16{letter-spacing:0em;}.cls-17{font-size:29.5px;}.cls-18{letter-spacing:0em;}.cls-19{font-size:27.65px;}</style></defs><title>Sem título-1</title><polygon points="422.19 0 140.73 0 0 243.75 140.73 487.5 422.19 487.5 562.92 243.75 422.19 0"/><polygon points="1063.44 108.83 866.33 108.83 767.78 279.53 866.33 450.23 1063.44 450.23 1162 279.53 1063.44 108.83"/><polygon class="cls-1" points="736.68 305.62 570.56 305.62 487.5 449.49 570.56 593.35 736.68 593.35 819.75 449.49 736.68 305.62"/><polygon class="cls-1" points="480.38 530.74 363.87 530.74 305.62 631.63 363.87 732.53 480.38 732.53 538.63 631.63 480.38 530.74"/><polygon class="cls-1" points="1804.24 491.98 1687.73 491.98 1629.48 592.87 1687.73 693.77 1804.24 693.77 1862.49 592.87 1804.24 491.98"/><polygon points="1015.47 487.5 849.35 487.5 766.29 631.37 849.35 775.23 1015.47 775.23 1098.53 631.37 1015.47 487.5"/><polygon points="713.18 648.51 593.54 648.51 533.72 752.13 593.54 855.74 713.18 855.74 773 752.13 713.18 648.51"/><polygon points="1786.23 161.01 1620.11 161.01 1537.05 304.88 1620.11 448.74 1786.23 448.74 1869.29 304.88 1786.23 161.01"/><polygon class="cls-1" points="1304.81 65.65 1197.25 65.65 1143.47 158.8 1197.25 251.95 1304.81 251.95 1358.59 158.8 1304.81 65.65"/><polygon class="cls-1" points="1480.99 278.79 1207.28 278.79 1070.42 515.83 1207.28 752.87 1480.99 752.87 1617.85 515.83 1480.99 278.79"/><text class="cls-2" x="-15.71" y="-120.26"><tspan class="cls-3" x="143.96" y="226.13">T</tspan><tspan x="168.99" y="226.13">r</tspan><tspan class="cls-4" x="184.69" y="226.13">a</tspan><tspan x="220.46" y="226.13">tamento</tspan><tspan x="113.41" y="290.54">odontologico</tspan></text><text class="cls-2" transform="translate(867.35 264.49)">Hospital<tspan class="cls-5" x="-35.09" y="64.4">V</tspan><tspan x="-4.19" y="64.4">ete</tspan><tspan class="cls-6" x="75.05" y="64.4">r</tspan><tspan x="91.28" y="64.4">iná</tspan><tspan class="cls-6" x="166.25" y="64.4">r</tspan><tspan x="182.47" y="64.4">ia</tspan></text><text class="cls-7" transform="translate(1247.53 492.67)">Hospital<tspan x="-53.34" y="64.4">das Clinicas</tspan></text><text class="cls-8" transform="translate(354.29 626.05)">C<tspan class="cls-9" x="25.24" y="0">r</tspan><tspan x="35.04" y="0">iacao </tspan><tspan x="-7.23" y="38.89">de Ma</tspan><tspan class="cls-10" x="92.66" y="38.89">r</tspan><tspan x="102.03" y="38.89">ca</tspan></text><text class="cls-11" transform="translate(560.9 472.65)">Espo<tspan class="cls-12" x="106.76" y="0">r</tspan><tspan x="121.95" y="0">tes</tspan></text><text class="cls-13" transform="translate(875.9 616.94)">Design<tspan x="-53.89" y="45.5">de ambiente</tspan></text><text class="cls-13" transform="translate(567.92 752.6)">cent<tspan class="cls-14" x="75.82" y="0">r</tspan><tspan x="86.54" y="0">o de</tspan><tspan x="19.63" y="45.5">Linguas</tspan></text><text class="cls-13" transform="translate(1581.42 320.26)"><tspan class="cls-14">m</tspan><tspan x="25.09" y="0">usicoter</tspan><tspan class="cls-15" x="158.98" y="0">a</tspan><tspan class="cls-16" x="184.53" y="0">pia</tspan></text><text x="-15.71" y="-120.26"/><text class="cls-17" transform="translate(1175.62 173)">A<tspan class="cls-18" x="18.6" y="0">r</tspan><tspan x="27.11" y="0">quitetura</tspan></text><text class="cls-19" transform="translate(1668.32 586.42)">Atendimento<tspan x="-1.46" y="33.18">psocologico</tspan></text></svg>